<?xml version="1.0" encoding="UTF-8" standalone="no"?>
<!-- Created with Inkscape (http://www.inkscape.org/) -->

<svg
   width="25mm"
   height="25mm"
   viewBox="0 0 25 25"
   version="1.1"
   id="svg1"
   xml:space="preserve"
   xmlns="http://www.w3.org/2000/svg"
   xmlns:svg="http://www.w3.org/2000/svg"><defs
     id="defs1" /><g
     id="layer3"
     style="display:none"><circle
       style="display:inline;fill:#000000;fill-opacity:0;stroke:#000000;stroke-width:0.3;stroke-dasharray:none;stroke-opacity:1"
       id="path5"
       cx="12.611327"
       cy="12.52682"
       r="11.40134" /></g><g
     id="layer1"><path
       style="fill:#000000;stroke-width:0.264583"
       d="m 68.656409,121.1223 c 0.940119,0.47213 2.027441,0.64568 3.067819,0.48966 1.34311,-0.20142 2.573037,-0.9412 3.497913,-1.93574 1.200605,-1.29104 1.909483,-3.00236 2.105541,-4.75445 0.220481,-1.97034 -0.195941,-4.00385 -1.154649,-5.73929 -1.290123,-2.33536 -3.51214,-4.07292 -5.97702,-5.09405 -3.164148,-1.31082 -6.744977,-1.49957 -10.086221,-0.74713 -3.103384,0.69887 -6.051355,2.21999 -8.252362,4.51672 -2.269011,2.36769 -3.678328,5.49199 -4.211079,8.72781 -0.484441,2.9424 -0.267408,5.98459 0.509405,8.86365 1.144122,4.2404 3.548838,8.17946 6.995827,10.90127 1.393966,1.1007 2.9458,1.99812 4.584647,2.68286 1.899797,0.79377 3.910565,1.30105 5.943057,1.6301 3.714114,0.60129 7.522986,0.61151 11.240871,0.034 3.971942,-0.61698 7.862622,-1.91671 11.274832,-4.04128 2.496237,-1.55425 4.728884,-3.55012 6.462374,-5.92539 1.733491,-2.37528 2.960397,-5.13348 3.454043,-8.03231 0.147205,-0.86443 0.229677,-1.73907 0.271684,-2.61494 0.06129,-1.27795 0.03664,-2.55825 0.01699,-3.83752 -0.205536,-13.37895 0,-26.760594 0,-40.141118 v -1.562177 c 0,-0.360247 0.0193,-0.725332 0.133286,-1.06707 0.113988,-0.341737 0.310029,-0.650302 0.527984,-0.937136 0.495339,-0.65188 1.129669,-1.24493 1.919709,-1.459748 0.34166,-0.0929 0.69879,-0.111287 1.05277,-0.118862 0.26032,-0.0056 0.52077,-0.0056 0.78109,0 h 0.64525 c 0.13514,0 0.27028,-3.5e-4 0.4054,-0.0021 0.0618,-0.02131 0.11919,-0.05522 0.16768,-0.09904 0.0999,-0.09024 0.15966,-0.22422 0.15667,-0.358777 -0.003,-0.134557 -0.0698,-0.267014 -0.17837,-0.346599 -0.0647,-0.04742 -0.14163,-0.07579 -0.2199,-0.09325 -0.0854,-0.01905 -0.17347,-0.02574 -0.26073,-0.01982 -2.53512,-0.02958 -5.070447,-0.04161 -7.605735,-0.03609 -1.795336,0.0039 -3.590714,0.01663 -5.385988,0.0012 -2.702164,-0.02322 -5.407423,-0.110116 -8.104665,0.05455 -0.905918,0.05531 -1.810839,0.139059 -2.706946,0.283062 -0.779764,0.125307 -1.5523,0.296201 -2.31125,0.514669 -0.52429,0.15092 -1.042211,0.324577 -1.548926,0.526806 -1.882793,0.75142 -3.61844,1.913339 -4.924248,3.463954 -1.279225,1.519049 -2.118998,3.374805 -2.614946,5.297813 -0.640831,2.484785 -0.712501,5.176219 0.203761,7.573152 1.049152,2.744572 3.362478,4.92492 6.0789,6.044941 2.027744,0.836069 4.284297,1.112476 6.452462,0.781087 2.312093,-0.353388 4.544608,-1.423018 6.112862,-3.15831 0.710604,-0.786293 1.281876,-1.704665 1.625842,-2.707113 0.343966,-1.002448 0.456497,-2.08974 0.275936,-3.134064 -0.220371,-1.274577 -0.912326,-2.497934 -2.003658,-3.192272 -0.295684,-0.188123 -0.616654,-0.336106 -0.950892,-0.441484 -0.275805,-0.08696 -0.560883,-0.145026 -0.849008,-0.169801 -0.327991,-0.0282 -0.659044,-0.01322 -0.984848,0.03396 -0.209744,0.03037 -0.419978,0.07485 -0.610895,0.166859 -0.02828,0.01363 -0.0562,0.02835 -0.08148,0.04697 -0.02519,0.01855 -0.04758,0.04088 -0.06619,0.06602 0.265156,0.169523 0.511391,0.368618 0.732671,0.592407 0.630398,0.637546 1.047643,1.468977 1.25471,2.341325 0.375383,1.581445 0.05932,3.299393 -0.784384,4.688652 -0.658521,1.084329 -1.624884,1.973035 -2.741099,2.575932 -1.116215,0.602897 -2.378523,0.922709 -3.646398,0.966463 -2.006102,0.06923 -4.03041,-0.56312 -5.637416,-1.765938 -1.997442,-1.495052 -3.29971,-3.826055 -3.735636,-6.282663 -0.519721,-2.928825 0.165583,-6.038659 1.799899,-8.524044 1.24139,-1.887844 3.014601,-3.421205 5.060088,-4.380884 1.285611,-0.603169 2.670368,-0.981401 4.075242,-1.188611 1.560807,-0.23021 3.149902,-0.251473 4.720487,-0.101881 0.637726,0.06074 1.272915,0.149548 1.901777,0.271682 0.928095,0.180249 1.879493,0.452888 2.580986,1.086731 0.466736,0.421725 0.79443,0.982489 0.999056,1.577318 0.204626,0.59483 0.291188,1.224566 0.325398,1.852677 0.04927,0.904659 -0.0078,1.811206 -0.03396,2.716827 -0.05922,2.048166 0,4.097799 0,6.146821 v 37.560134 c 0,0.29433 0.0068,0.58871 0,0.88296 -0.02291,0.99315 -0.251708,1.97095 -0.543364,2.92059 -0.936251,3.04844 -2.554892,5.90813 -4.822367,8.15048 -2.876037,2.84417 -6.704057,4.60703 -10.663547,5.43366 -5.594084,1.16788 -11.662295,0.47824 -16.572642,-2.44515 -4.002929,-2.38316 -7.13583,-6.22729 -8.558006,-10.66354 -1.265028,-3.94605 -1.169838,-8.29293 0.135842,-12.22572 0.811572,-2.4445 2.116109,-4.78033 4.075239,-6.45247 1.843974,-1.57385 4.191487,-2.48864 6.588305,-2.85267 2.289112,-0.34767 4.709161,-0.19609 6.792069,0.81505 1.66968,0.81054 3.070549,2.16347 3.939399,3.80356 0.86506,1.63294 1.198275,3.52118 1.086729,5.36573 -0.113712,1.88038 -0.714354,3.78633 -1.992548,5.17016 -0.330036,0.35731 -0.701525,0.67631 -1.104625,0.94853"
       id="path1"
       transform="matrix(0.17516749,0,0,0.17526825,-5.2834551,-7.1240847)" /><path
       style="fill:#000000;fill-opacity:1;stroke-width:0.264583"
       d="m 128.81155,104.12239 c -0.65579,0.26609 -1.25918,0.66062 -1.76594,1.15465 -1.26217,1.23047 -1.86085,3.00439 -2.07158,4.75445 -0.21646,1.79761 -0.0596,3.664 0.64525,5.33177 0.81837,1.93639 2.34757,3.52535 4.14316,4.6186 2.6235,1.59733 5.87468,2.16758 8.86365,1.4603 1.99447,-0.47195 3.8408,-1.4881 5.39969,-2.81871 1.62496,-1.38701 2.96107,-3.13695 3.73564,-5.12801 0.6448,-1.65747 0.89203,-3.45144 0.88297,-5.22989 -0.01,-1.88705 -0.30402,-3.77343 -0.88297,-5.5695 -0.90259,-2.800117 -2.49702,-5.364669 -4.55069,-7.471271 -1.55103,-1.591006 -3.35829,-2.923227 -5.29781,-4.007319 -2.62475,-1.467104 -5.49778,-2.484013 -8.45612,-3.02247 -2.63997,-0.480509 -5.35335,-0.58105 -8.01464,-0.237723 -2.33612,0.301378 -4.62549,0.943579 -6.79207,1.867818 -2.16733,0.924555 -4.22024,2.13626 -6.01098,3.667718 -1.8255,1.561184 -3.35724,3.43295 -4.82837,5.331772 -0.48977,0.632154 -0.97456,1.269315 -1.41021,1.939915 -0.24419,0.37588 -0.4727,0.76194 -0.68475,1.15684 l -0.57953,1.06295 c 0.002,-0.0834 0.004,-0.16686 0.005,-0.2503 0.003,-0.21414 0.003,-0.4283 0.002,-0.64246 -5.6e-4,-0.1656 -0.001,-0.33119 -0.002,-0.49679 -0.002,-0.65598 -0.001,-1.31197 0.004,-1.967935 l 0.002,-5.148384 c 0.16543,-0.141422 0.335,-0.278007 0.50841,-0.409521 0.28264,-0.214353 0.5753,-0.415097 0.86792,-0.615622 1.18863,-0.814552 2.38102,-1.628535 3.64481,-2.32076 1.79102,-0.98101 3.71087,-1.709146 5.6618,-2.312476 1.87993,-0.581372 3.79643,-1.049991 5.74038,-1.355239 1.67155,-0.262476 3.36074,-0.403797 5.0516,-0.466955 1.61605,-0.06036 3.23625,-0.0494 4.84784,0.0849 1.62396,0.135331 3.23902,0.39629 4.81388,0.815047 2.26442,0.602111 4.44096,1.530761 6.44822,2.739493 2.31318,1.392948 4.40695,3.164368 6.0937,5.272921 1.36252,1.703249 2.45407,3.618709 3.26585,5.643191 0.94436,2.35511 1.51363,4.88385 1.44081,7.4202 -0.0378,1.31652 -0.24828,2.62797 -0.62435,3.8902 -0.38231,1.55293 -1.03544,3.03879 -1.92109,4.37047 -0.95263,1.4324 -2.1765,2.68721 -3.60204,3.65007 -1.25432,0.84721 -2.65582,1.46451 -4.10632,1.89707 -1.45018,0.43246 -2.95447,0.68318 -4.46652,0.74442 -1.25161,0.0645 -2.51023,-0.008 -3.74612,-0.21612 -2.45584,-0.41323 -4.84155,-1.38016 -6.77183,-2.95367 -1.42312,-1.16008 -2.5818,-2.63574 -3.40993,-4.27442 -0.4781,-0.94606 -0.84966,-1.95367 -1.00857,-3.0017 -0.20418,-1.34656 -0.0508,-2.73583 0.3602,-4.03428 0.56484,-1.78441 1.65688,-3.44696 3.24183,-4.44251 0.71669,-0.45017 1.52137,-0.75721 2.35334,-0.91252 0.87521,-0.16338 1.79074,-0.15778 2.64449,0.0948 0.20208,0.0598 0.40015,0.13313 0.59243,0.21938"
       id="path3"
       transform="matrix(0.17516749,0,0,0.17526825,-5.2834551,-7.1240847)" /><path
       style="fill:#000000;fill-opacity:1;stroke-width:0.264583"
       d="m 98.203485,130.6272 c 0.193752,0.707 0.395907,1.41169 0.606406,2.11388 0.369732,1.23337 0.76561,2.46013 1.242699,3.65607 1.62194,4.06579 4.22592,7.78558 7.72037,10.4219 3.7121,2.80052 8.29773,4.28932 12.91931,4.80271 6.05298,0.67239 12.27319,-0.27912 17.8661,-2.68952 3.00795,-1.29635 5.84992,-3.01764 8.26068,-5.23496 1.30896,-1.20393 2.48691,-2.55021 3.50637,-4.00744 l 0.0657,-0.0839 0.093,-0.10206 c 0.0359,-0.0376 0.0861,-0.0612 0.138,-0.065 0.0415,-0.003 0.0838,0.007 0.11993,0.027 0.10226,0.0641 0.20247,0.13139 0.30041,0.20188 0.0606,0.0436 0.12027,0.0884 0.17906,0.13435 0.0364,0.0235 0.0642,0.0601 0.0771,0.10143 0.011,0.0351 0.0113,0.0734 0.001,0.1087 l -0.0468,0.08 -0.46526,0.67538 -1.22769,1.48284 c -0.62801,0.71086 -1.29363,1.38851 -1.99313,2.02915 -1.20892,1.1072 -2.51826,2.10298 -3.8932,2.99569 -1.86778,1.2127 -3.85834,2.23618 -5.93136,3.04973 -2.76914,1.05495 -5.66008,1.7898 -8.59686,2.18524 -2.1233,0.2859 -4.26997,0.39473 -6.41163,0.33619 -2.76374,-0.0756 -5.51978,-0.43013 -8.21264,-1.0566 -4.62652,-0.87836 -9.06194,-2.74981 -12.91931,-5.45109 -1.834663,-1.2848 -3.54022,-2.75557 -5.066868,-4.39448 -1.16627,-1.25203 -2.227777,-2.60162 -3.169793,-4.03004 -0.166887,-0.19599 -0.319996,-0.4037 -0.457825,-0.62111 -0.06133,-0.0967 -0.11964,-0.1954 -0.174814,-0.29578 l 0.04677,-0.0481 0.105412,-0.10753 0.296448,-0.28936 c 0.840468,-0.74232 1.634902,-1.53676 2.377223,-2.37723 0.876448,-0.99233 1.680201,-2.04886 2.402692,-3.15831 l 0.229232,-0.42875"
       id="path4"
       transform="matrix(0.17516749,0,0,0.17526825,-5.2834551,-7.1240847)" /></g></svg>
